<?xml version="1.0" encoding="UTF-8"?>
<svg id="Layer_1" xmlns="http://www.w3.org/2000/svg" xmlns:xlink="http://www.w3.org/1999/xlink" version="1.1" viewBox="0 0 1500 2000">
  <!-- Generator: Adobe Illustrator 29.0.0, SVG Export Plug-In . SVG Version: 2.1.0 Build 186)  -->
  <defs>
    <clipPath id="clippath">
      <rect x="0" width="1500" height="2000" style="fill: none;"/>
    </clipPath>
  </defs>
  <g style="clip-path: url(#clippath);">
    <polygon points="-83.143 1427.184 1569.551 1407.368 1537.844 2049.422 -43.51 2039.514 -83.143 1427.184" style="fill: #101626;"/>
    <polygon points="-53.419 680.103 -53.419 953.571 1559.642 830.709 -53.419 680.103" style="fill: #fb9482;"/>
    <path d="M-128.721,85.609c7.927,0,1710.162,152.587,1710.162,152.587v606.384l-1735.923-118.899,25.761-640.072Z" style="fill: #f5a687;"/>
    <path d="M614.397,957.534c15.853-13.872,582.604-396.329,582.604-396.329l653.944,459.742-85.211,410.201-1151.337-473.614Z" style="fill: #86b1c4;"/>
    <polygon points="-53.419 -35.271 1527.936 -35.271 1527.936 234.233 -42.097 508.181 -53.419 -35.271" style="fill: #f3c1a8;"/>
    <polygon points="-67.29 995.185 317.15 695.957 1636.927 1347.919 -29.639 1276.579 -67.29 995.185" style="fill: #708292;"/>
    <polygon points="-297.161 1415.295 344.893 1038.782 1185.111 1431.148 1690.431 1920.615 -112.868 1867.11 -338.776 1748.211 -297.161 1415.295" style="fill: #345671;"/>
    <polygon points="400.379 1625.349 1006.763 1161.644 1751.862 1409.35 1613.147 1791.808 400.379 1625.349" style="fill: #345671;"/>
    <circle cx="502.434" cy="449.241" r="145.651" style="fill: #e64244;"/>
  </g>
</svg>